{"title":"Night.Owls.2015.WEBRip.480p.x264.AAC-VYTO [P2PDL]","uid":12911324,"size":359793151,"categoryP":"video","categoryS":"movies","magnet":"?xt=urn:btih:1e4bdd2d267b54c40eec33683de2a3f97f101632&amp;dn=Night.Owls.2015.WEBRip.480p.x264.AAC-VYTO+%5BP2PDL%5D&amp;tr=udp%3A%2F%2Ftracker.leechers-paradise.org%3A6969&amp;tr=udp%3A%2F%2Fzer0day.ch%3A1337&amp;tr=udp%3A%2F%2Fopen.demonii.com%3A1337&amp;tr=udp%3A%2F%2Ftracker.coppersurfer.tk%3A6969&amp;tr=udp%3A%2F%2Fexodus.desync.com%3A6969","seeders":0,"leechers":1,"uploader":"VYTOP2PDL","files":7,"time":1449304947,"description":"Night.Owls.2015.WEBRip.480p.x264.AAC-VYTO\r\n\r\n\r\nGenre: Comedy, Drama   \nhttp://www.imdb.com/title/tt3591436/\r\n\r\n\r\nGeneral\r\nFormat                         : MPEG-4\r\nFile size                      : 337 MiB\r\nDuration                       : 1h 32mn\r\nOverall bit rate               : 512 Kbps\r\n\r\nVideo\r\nFormat                         : AVC\r\nBit rate                       : 477 Kbps\r\nWidth                          : 720 pixels\r\nHeight                         : 304 pixels\r\nDisplay aspect ratio           : 2.35:1\r\nFrame rate mode                : Constant\r\nFrame rate                     : 23.976 fps\r\nBit depth                      : 8 bits\r\nStream size                    : 314 MiB (93%)\r\nWriting library                : x264\r\n\r\nAudio\r\nFormat                         : AAC\r\nBit rate mode                  : Variable\r\nBit rate                       : 32.0 Kbps\r\nChannel(s)                     : 2 channels\r\nChannel positions              : Front: L R \r\nSampling rate                  : 48.0 KHz\r\nStream size                    : 21.0 MiB (6%)\r\nLanguage                       : English\r\n\r\nSubtitle                       : Yes (English)\r\n\r\n\r\n----------------------------------------------------------------------------------------------------\r\n\r\n\r\nEncoder Notes: Looking For Early Access To Anything You Can Provide WEBDL, DVDScr, DVDR, BluRay,\r\nDirect Audio, Music Releases and Seedboxes. If You Got anything to offer please contact us.\r\n\r\nSupport us by donating BC - 1FgwdzPsd1y25Gea8wP1qni35uGCtmkRCD\r\n\r\nFor our latest release, find us and join us!!!","torrent":{"xt":"urn:btih:1e4bdd2d267b54c40eec33683de2a3f97f101632","amp;dn":"Night.Owls.2015.WEBRip.480p.x264.AAC-VYTO+%5BP2PDL%5D","amp;tr":["udp%3A%2F%2Ftracker.leechers-paradise.org%3A6969","udp%3A%2F%2Fzer0day.ch%3A1337","udp%3A%2F%2Fopen.demonii.com%3A1337","udp%3A%2F%2Ftracker.coppersurfer.tk%3A6969","udp%3A%2F%2Fexodus.desync.com%3A6969"],"infoHash":"1e4bdd2d267b54c40eec33683de2a3f97f101632","infoHashBuffer":{"type":"Buffer","data":[30,75,221,45,38,123,84,196,14,236,51,104,61,226,163,249,127,16,22,50]},"announce":[],"urlList":[]}}